<?xml version="1.0" standalone="no"?>
<!DOCTYPE svg PUBLIC "-//W3C//DTD SVG 20010904//EN"
 "http://www.w3.org/TR/2001/REC-SVG-20010904/DTD/svg10.dtd">
<svg version="1.0" xmlns="http://www.w3.org/2000/svg"
 width="688.000000pt" height="1564.000000pt" viewBox="0 0 688.000000 1564.000000"
 preserveAspectRatio="xMidYMid meet">

<g transform="translate(0.000000,1564.000000) scale(0.100000,-0.100000)"
fill="#000000" stroke="none">
<path d="M3240 15360 c-156 -35 -186 -46 -280 -102 -91 -54 -188 -155 -223
-233 -64 -138 -84 -229 -93 -423 -7 -146 -16 -176 -59 -192 -64 -24 -92 -183
-56 -320 33 -128 46 -151 120 -227 44 -44 71 -80 71 -93 0 -12 6 -34 14 -48 8
-15 17 -34 20 -42 8 -22 56 -100 91 -151 30 -42 30 -43 33 -203 3 -99 0 -175
-7 -197 -11 -35 -16 -39 -79 -59 -37 -13 -96 -35 -132 -50 -254 -107 -396
-169 -468 -206 -45 -23 -117 -49 -160 -59 -105 -23 -257 -72 -317 -102 -52
-26 -160 -97 -183 -120 -8 -7 -22 -18 -32 -23 -23 -12 -126 -158 -163 -230
-77 -150 -92 -239 -78 -449 13 -185 10 -211 -41 -366 -31 -95 -39 -129 -64
-265 -9 -47 -20 -105 -24 -130 -5 -25 -13 -218 -19 -430 -6 -212 -13 -425 -16
-475 -5 -93 -36 -212 -80 -309 -60 -131 -75 -170 -75 -192 0 -12 -5 -26 -10
-29 -6 -3 -10 -18 -10 -32 0 -15 -6 -52 -14 -82 -17 -65 -38 -290 -87 -911 -4
-63 -13 -133 -19 -155 -5 -22 -10 -57 -10 -79 0 -56 -30 -204 -51 -252 -19
-43 -61 -82 -140 -127 -25 -14 -80 -63 -122 -107 -71 -76 -85 -98 -192 -313
-63 -127 -115 -241 -115 -252 0 -12 12 -32 26 -46 32 -30 98 -30 150 0 64 38
64 42 25 -214 -35 -222 -21 -285 79 -364 62 -49 100 -58 160 -37 25 9 64 16
88 16 52 0 101 20 150 60 20 16 43 30 51 30 24 0 108 59 136 96 22 29 52 89
85 169 4 11 16 49 25 85 10 36 30 103 45 150 15 47 35 112 45 145 9 33 23 80
31 105 22 72 34 155 45 310 9 127 27 236 58 360 5 19 33 100 61 180 29 80 64
183 79 230 16 47 46 130 69 185 141 350 222 665 222 865 0 58 5 144 11 190 6
47 14 128 19 180 8 84 28 229 44 315 3 17 15 80 26 140 11 61 27 133 34 160 8
28 22 87 32 132 9 45 20 87 24 94 12 18 28 3 36 -34 3 -17 24 -84 44 -147 50
-154 85 -269 111 -365 56 -211 57 -215 66 -565 15 -619 10 -835 -26 -990 -15
-67 -37 -183 -56 -290 -9 -52 -21 -122 -26 -154 -6 -33 -15 -112 -19 -175 -5
-64 -14 -138 -20 -166 -11 -54 -23 -158 -40 -350 -5 -66 -14 -147 -20 -180
-27 -171 -19 -904 14 -1210 7 -71 19 -184 25 -250 7 -66 16 -140 22 -165 5
-25 16 -88 24 -140 8 -52 22 -129 31 -170 9 -41 20 -93 24 -115 21 -103 65
-273 79 -305 11 -25 69 -233 89 -320 6 -25 17 -74 26 -110 41 -177 44 -325 12
-595 -29 -241 -38 -453 -32 -705 4 -135 11 -267 16 -295 6 -27 15 -84 20 -125
6 -41 16 -109 24 -150 8 -41 21 -109 29 -151 8 -42 17 -81 20 -86 3 -5 13 -52
22 -104 37 -211 55 -295 89 -409 40 -137 93 -359 105 -435 47 -313 47 -420 2
-484 -20 -27 -95 -83 -151 -111 -54 -27 -162 -104 -190 -136 -38 -44 -46 -76
-30 -127 18 -61 66 -99 157 -126 43 -12 87 -26 98 -31 11 -5 31 -11 45 -13 14
-3 84 -24 155 -47 72 -23 149 -46 173 -51 23 -4 51 -13 61 -19 11 -5 58 -10
105 -10 111 0 181 30 234 102 20 26 44 48 54 48 10 0 28 -17 42 -37 50 -79
119 -113 233 -113 80 0 93 3 338 80 83 26 199 60 259 76 82 22 117 37 146 61
84 72 86 147 5 227 -27 26 -65 56 -84 67 -20 11 -54 31 -76 44 -22 14 -56 34
-76 44 -48 27 -96 82 -108 128 -26 92 -6 428 32 564 9 30 23 83 32 119 9 36
20 79 25 95 35 123 74 294 95 415 9 52 18 97 20 100 4 6 44 196 56 265 5 28
15 88 24 135 67 377 67 740 0 1330 -14 129 -8 325 14 408 6 20 18 73 27 117 9
44 32 132 51 195 19 63 41 140 50 170 8 30 21 75 28 100 43 151 117 514 135
664 6 49 14 94 17 100 4 5 10 69 14 141 3 71 12 173 18 225 39 322 22 1129
-30 1475 -6 39 -15 104 -19 145 -27 260 -55 459 -95 665 -39 206 -48 255 -56
325 -4 41 -6 307 -3 590 5 528 10 588 50 725 8 28 19 66 24 85 9 32 24 80 110
360 16 52 32 112 35 133 4 27 11 37 24 37 23 0 32 -25 60 -160 12 -58 28 -134
36 -170 7 -36 20 -105 29 -155 8 -49 20 -119 26 -155 11 -61 17 -112 40 -330
5 -47 9 -126 9 -176 1 -86 17 -221 42 -344 16 -85 97 -355 130 -437 6 -15 15
-37 19 -48 4 -11 15 -38 23 -60 45 -115 81 -213 88 -240 4 -16 14 -48 23 -70
115 -307 156 -461 156 -588 1 -165 43 -376 124 -617 13 -41 34 -109 45 -150
45 -171 95 -273 161 -333 29 -26 64 -50 79 -54 14 -3 51 -24 82 -45 45 -32 68
-41 125 -48 38 -5 91 -14 118 -20 38 -8 57 -8 80 1 51 21 118 81 137 124 21
46 25 165 8 260 -6 33 -14 85 -19 115 -5 30 -12 70 -16 87 -11 58 -1 66 48 38
30 -17 58 -25 94 -25 90 0 107 50 53 161 -98 199 -166 330 -196 377 -48 76
-161 183 -233 221 -38 21 -70 46 -85 69 -26 41 -55 141 -55 194 0 18 -5 49
-10 68 -6 19 -15 82 -20 140 -5 58 -14 150 -19 205 -6 55 -20 219 -31 365 -29
363 -42 449 -99 655 -7 26 -37 97 -72 170 -23 49 -49 142 -63 223 -11 63 -16
188 -19 447 -5 357 -14 502 -43 622 -7 34 -14 73 -14 88 0 28 -5 47 -62 220
l-33 100 0 250 c0 249 0 250 -29 335 -16 47 -35 92 -42 101 -8 8 -14 21 -14
27 0 15 -58 99 -117 169 -64 76 -224 180 -358 231 -16 7 -91 27 -166 46 -84
21 -165 49 -215 74 -43 22 -97 47 -119 57 -22 9 -56 24 -75 32 -164 72 -325
138 -376 154 -34 11 -72 31 -84 44 -22 24 -23 31 -22 200 1 187 4 202 62 270
24 28 77 141 90 192 8 32 23 53 61 85 97 81 140 188 142 353 2 97 -1 115 -21
153 -13 23 -33 47 -45 51 -52 20 -59 40 -62 183 -3 160 -15 235 -57 348 -40
110 -51 127 -136 221 -72 77 -209 157 -312 180 -19 5 -55 13 -80 18 -52 12
-229 12 -280 1z m345 -46 c102 -31 162 -59 228 -107 85 -62 136 -125 186 -231
63 -134 76 -210 82 -486 2 -94 -11 -335 -22 -410 -6 -36 -12 -85 -15 -110 -5
-43 -15 -84 -51 -207 -21 -73 -57 -147 -94 -193 -54 -68 -62 -115 -55 -307 5
-126 3 -173 -5 -179 -7 -4 57 -30 142 -59 216 -74 268 -95 579 -243 47 -22 99
-43 115 -47 326 -67 505 -165 644 -351 64 -86 80 -117 114 -214 l29 -85 -1
-237 c-2 -228 -1 -241 23 -310 101 -301 123 -464 130 -983 7 -464 15 -520 111
-730 56 -123 110 -337 120 -478 3 -40 10 -110 15 -157 6 -47 17 -175 25 -285
29 -379 51 -572 81 -724 21 -103 36 -121 191 -223 63 -41 139 -120 180 -187
22 -36 94 -181 173 -345 36 -75 41 -92 31 -112 -8 -19 -18 -24 -46 -24 -20 0
-46 5 -58 11 -26 13 -97 80 -97 91 0 4 -14 29 -32 55 -40 60 -37 57 -43 51 -3
-3 9 -61 26 -129 82 -320 99 -540 46 -596 -11 -13 -26 -23 -33 -23 -7 0 -21
-11 -31 -23 -21 -27 -54 -47 -77 -47 -9 0 -36 10 -61 21 -35 17 -48 19 -59 10
-25 -21 -112 15 -149 61 -25 31 -37 38 -56 35 -41 -8 -121 53 -160 123 -19 34
-91 248 -91 271 0 10 -6 33 -14 51 -17 42 -35 94 -46 133 -5 17 -19 68 -33
115 -32 111 -54 243 -67 410 -15 206 -17 215 -126 525 -36 105 -69 201 -72
215 -3 14 -11 34 -18 45 -8 11 -14 29 -14 40 0 12 -4 25 -9 31 -19 21 -99 247
-157 444 -9 30 -21 69 -26 85 -24 78 -49 240 -54 349 -12 279 -51 622 -94 811
-6 28 -15 73 -20 102 -4 28 -11 56 -14 61 -11 18 -46 211 -55 307 -11 105 -10
107 34 265 30 106 32 115 38 182 3 26 1 45 -4 42 -5 -3 -9 -15 -9 -28 0 -12
-9 -52 -20 -87 -11 -35 -34 -109 -52 -164 -17 -55 -34 -109 -39 -120 -4 -11
-12 -38 -17 -60 -20 -77 -53 -200 -66 -245 -8 -25 -24 -79 -36 -120 -12 -41
-26 -84 -31 -95 -24 -55 -87 -282 -100 -360 -14 -83 -31 -775 -26 -1015 5
-221 10 -265 56 -495 20 -104 51 -273 70 -386 6 -37 11 -86 11 -110 0 -24 9
-100 19 -169 23 -149 46 -384 62 -645 12 -196 6 -759 -10 -960 -5 -55 -14
-167 -20 -250 -6 -82 -18 -188 -26 -235 -8 -47 -17 -105 -20 -130 -6 -40 -13
-75 -45 -225 -42 -193 -105 -441 -135 -530 -24 -69 -33 -104 -61 -220 -71
-301 -73 -405 -12 -915 16 -131 16 -580 0 -710 -31 -251 -73 -491 -123 -700
-6 -25 -15 -70 -19 -100 -5 -30 -16 -84 -25 -120 -9 -36 -20 -83 -25 -105 -5
-22 -18 -76 -30 -120 -45 -168 -61 -232 -70 -280 -4 -27 -13 -68 -19 -90 -15
-60 -25 -279 -16 -388 6 -83 11 -101 33 -130 32 -40 122 -106 192 -139 50 -24
167 -118 178 -143 17 -36 -2 -99 -39 -130 -26 -21 -49 -30 -184 -70 -27 -8
-104 -33 -170 -55 -395 -129 -530 -119 -606 48 -18 39 -22 65 -22 157 1 113 6
148 42 272 12 40 21 90 21 110 0 21 4 54 10 73 5 19 14 98 20 175 5 77 17 226
25 330 21 276 16 644 -14 905 -15 128 -39 412 -52 623 -16 252 6 625 54 927
21 132 9 585 -28 1035 -28 347 -36 483 -45 795 -15 463 -24 1192 -16 1223 7
30 42 38 53 11 3 -8 38 -31 77 -51 66 -34 107 -50 211 -82 58 -18 317 -19 385
-2 58 14 120 41 120 52 0 3 -30 -2 -67 -13 -136 -38 -428 -34 -530 8 -77 32
-109 48 -153 78 -51 35 -64 49 -104 120 l-30 51 -5 375 c-6 356 -2 422 22 446
4 4 7 15 7 23 0 13 -8 16 -40 13 -45 -5 -48 -13 -25 -77 28 -76 10 -708 -22
-813 -30 -97 -144 -183 -296 -224 -110 -29 -414 -33 -489 -6 -71 26 -136 58
-149 74 -6 8 -16 14 -22 14 -6 0 -19 7 -29 17 -10 9 -21 14 -24 11 -7 -7 122
-92 172 -113 67 -29 146 -46 234 -52 78 -5 134 1 277 26 60 11 243 97 275 129
6 6 17 8 24 5 12 -4 14 -87 14 -487 0 -264 -5 -569 -10 -676 -6 -107 -15 -294
-20 -415 -5 -121 -17 -299 -25 -395 -16 -174 -28 -412 -40 -775 -6 -148 -3
-221 10 -330 46 -387 55 -501 55 -719 0 -118 -4 -258 -10 -312 -5 -55 -14
-157 -19 -229 -6 -71 -18 -211 -28 -310 -24 -245 -24 -765 0 -1025 21 -221 34
-325 47 -364 6 -16 10 -46 10 -68 0 -21 7 -55 15 -75 8 -19 15 -47 15 -62 0
-15 5 -32 10 -37 13 -13 40 -154 40 -210 0 -25 -7 -76 -16 -114 -13 -56 -23
-76 -55 -109 -59 -59 -110 -75 -217 -68 -77 5 -245 48 -337 87 -11 5 -47 16
-80 25 -33 9 -78 23 -100 31 -23 8 -51 14 -63 14 -38 0 -118 39 -139 69 -27
35 -36 81 -24 114 12 30 106 108 168 138 23 11 52 28 65 37 13 10 36 24 51 32
48 24 95 85 113 146 24 83 14 235 -30 444 -29 141 -35 165 -77 325 -23 88 -45
176 -49 195 -7 34 -18 78 -46 192 -8 32 -14 73 -14 92 0 19 -5 47 -11 63 -7
15 -15 48 -19 73 -5 25 -20 103 -34 174 -40 202 -58 346 -76 636 -12 177 -3
321 41 740 25 232 21 384 -16 555 -14 62 -26 118 -28 126 -3 8 -12 39 -20 69
-9 30 -27 91 -41 135 -51 163 -110 402 -125 507 -5 31 -11 61 -15 66 -6 10
-25 112 -51 272 -8 47 -21 171 -30 275 -9 105 -18 196 -20 203 -3 7 -10 142
-15 299 -15 410 3 871 47 1193 9 63 19 151 24 195 5 44 13 104 19 134 5 30 10
78 10 106 0 29 4 65 10 81 5 16 14 56 19 89 5 33 16 98 25 145 8 47 24 135 35
195 29 165 43 332 37 447 -3 57 -8 278 -12 492 -6 404 -9 434 -58 616 -9 30
-18 66 -22 80 -3 14 -14 48 -24 75 -47 128 -121 383 -160 555 -5 19 -20 67
-34 105 -15 39 -36 99 -47 135 -17 54 -39 98 -39 80 0 -18 33 -159 51 -216 35
-111 19 -277 -51 -554 -8 -32 -17 -74 -50 -245 -6 -33 -15 -91 -20 -130 -5
-38 -13 -106 -19 -150 -6 -44 -17 -190 -26 -325 -18 -280 -31 -346 -118 -625
-38 -120 -93 -274 -118 -330 -23 -54 -136 -371 -149 -420 -4 -16 -20 -66 -34
-110 -15 -44 -31 -93 -36 -110 -16 -53 -40 -236 -40 -311 0 -108 -46 -327
-100 -479 -12 -33 -24 -72 -27 -88 -3 -15 -9 -30 -14 -33 -5 -3 -9 -14 -9 -24
0 -39 -72 -237 -102 -280 -33 -47 -86 -99 -103 -101 -5 -1 -20 0 -32 1 -13 1
-33 -11 -50 -30 -44 -51 -98 -73 -153 -66 -36 5 -50 3 -60 -9 -31 -38 -124
-23 -150 24 -5 11 -20 21 -32 23 -26 4 -54 49 -63 103 -13 82 31 352 89 545
29 96 30 100 17 100 -5 0 -21 -21 -36 -47 -65 -113 -125 -163 -193 -163 -64 0
-66 32 -11 148 179 378 224 441 387 546 77 49 125 100 140 148 27 84 72 451
92 748 21 298 52 598 69 660 5 19 17 64 26 100 9 36 27 92 41 125 14 33 30 71
36 85 5 14 16 39 23 55 58 132 66 192 71 559 6 433 21 625 65 831 12 53 55
197 69 230 20 47 23 92 21 311 l-2 232 30 91 c29 87 78 178 121 224 11 11 20
24 20 29 0 28 138 146 231 197 54 29 190 76 304 106 106 28 152 44 257 94 57
27 121 56 143 66 22 10 72 32 110 50 39 18 129 52 200 75 72 24 139 47 150 51
11 4 29 9 40 11 11 2 20 9 19 16 -1 6 -2 101 -2 210 l-2 198 -32 49 c-18 27
-41 60 -50 74 -26 39 -65 123 -71 151 -2 14 -16 68 -31 120 -14 52 -26 109
-26 125 -1 17 -7 55 -15 85 l-15 55 5 -75 c3 -41 8 -96 11 -122 5 -43 4 -48
-13 -48 -61 0 -124 156 -125 310 -1 94 7 126 37 165 15 18 18 19 43 4 24 -13
27 -21 27 -64 1 -98 5 -148 12 -142 3 4 5 126 4 271 -2 216 1 276 14 328 57
226 105 314 219 406 154 124 294 165 526 155 58 -2 128 -11 155 -19z m589
-949 c49 -74 43 -246 -13 -369 -31 -69 -45 -88 -73 -98 -28 -11 -41 15 -29 59
11 41 33 293 31 357 -2 68 52 101 84 51z m-770 -7127 c3 -18 7 -301 10 -628 6
-561 24 -1118 46 -1330 21 -211 31 -378 39 -630 8 -273 3 -416 -18 -555 -6
-44 -16 -111 -22 -150 -29 -187 -28 -808 1 -980 5 -33 10 -89 10 -124 0 -35 6
-109 14 -165 31 -212 42 -592 27 -861 -24 -424 -70 -783 -107 -833 -29 -40
-59 32 -88 213 -9 55 -21 127 -27 159 -6 32 -14 104 -19 160 -5 56 -14 144
-19 196 -16 146 -13 670 3 824 46 411 66 709 66 936 -1 240 -31 602 -61 742
-14 61 -13 361 0 453 6 39 11 137 11 220 0 82 7 208 15 280 28 251 40 557 65
1605 6 250 13 465 16 478 7 34 32 27 38 -10z"/>
<path d="M1872 11425 c0 -11 4 -31 8 -45 l8 -25 0 25 c0 14 -3 34 -8 45 l-9
20 1 -20z"/>
<path d="M4391 7249 c-13 -11 -21 -22 -19 -25 3 -3 19 6 34 20 34 30 20 35
-15 5z"/>
<path d="M4320 7200 c0 -5 4 -10 9 -10 6 0 13 5 16 10 3 6 -1 10 -9 10 -9 0
-16 -4 -16 -10z"/>
</g>
</svg>
