<?xml version="1.0" standalone="no"?>
<!DOCTYPE svg PUBLIC "-//W3C//DTD SVG 20010904//EN"
 "http://www.w3.org/TR/2001/REC-SVG-20010904/DTD/svg10.dtd">
<svg version="1.0" xmlns="http://www.w3.org/2000/svg"
 width="716.000000pt" height="1598.000000pt" viewBox="0 0 716.000000 1598.000000"
 preserveAspectRatio="xMidYMid meet">

<g transform="translate(0.000000,1598.000000) scale(0.100000,-0.100000)"
fill="#000000" stroke="none">
<path d="M3225 15338 c-22 -5 -58 -12 -80 -17 -73 -14 -214 -92 -283 -156 -85
-79 -134 -156 -171 -268 -40 -122 -53 -208 -50 -350 1 -64 0 -119 -2 -121 -2
-2 -23 -15 -46 -30 -67 -41 -78 -71 -77 -206 1 -164 30 -245 123 -342 44 -46
60 -70 64 -97 7 -57 56 -147 114 -212 32 -36 54 -72 58 -93 4 -19 5 -105 3
-191 -4 -183 -1 -179 -121 -216 -39 -12 -76 -25 -82 -29 -5 -4 -46 -22 -90
-40 -44 -18 -98 -40 -120 -50 -22 -10 -65 -28 -95 -41 -30 -13 -98 -45 -150
-72 -57 -29 -133 -58 -190 -72 -181 -44 -250 -65 -300 -92 -14 -7 -29 -13 -35
-13 -5 0 -23 -11 -39 -25 -16 -14 -33 -25 -37 -25 -4 0 -41 -27 -82 -59 -94
-74 -197 -223 -248 -357 l-34 -89 3 -233 c2 -243 -2 -284 -47 -407 -29 -79
-73 -296 -91 -450 -7 -55 -14 -260 -16 -455 -3 -195 -9 -389 -15 -430 -13 -87
-50 -206 -85 -269 -13 -24 -24 -51 -24 -60 0 -9 -6 -25 -13 -36 -26 -39 -67
-216 -87 -375 -12 -100 -37 -394 -50 -600 -5 -80 -14 -176 -20 -215 -5 -38
-14 -108 -20 -155 -33 -281 -51 -326 -158 -389 -70 -42 -153 -115 -214 -191
-30 -37 -198 -364 -198 -385 0 -3 -11 -23 -25 -43 -30 -44 -33 -101 -7 -125
27 -24 109 -22 147 3 17 11 38 20 49 20 20 0 20 -5 -4 -145 -4 -27 -13 -79
-19 -115 -26 -160 -7 -271 55 -318 16 -12 39 -31 52 -42 35 -29 88 -35 146
-17 28 9 75 18 104 20 43 3 65 12 112 46 33 22 67 41 78 41 25 0 125 91 155
142 26 44 35 71 138 398 33 107 67 213 74 235 23 69 45 242 45 354 0 84 6 132
25 207 30 114 72 251 86 276 5 10 9 23 9 30 0 7 6 24 13 38 7 14 26 66 42 115
27 87 83 238 110 300 31 69 98 288 150 485 23 84 45 261 46 358 0 81 3 120 28
345 16 150 46 327 88 517 14 63 31 144 37 180 14 74 21 90 41 90 19 0 26 -13
35 -73 4 -29 13 -67 19 -84 24 -71 33 -99 41 -128 5 -16 22 -68 38 -115 16
-47 37 -112 47 -145 9 -33 20 -70 25 -82 34 -83 40 -189 42 -758 3 -505 1
-578 -14 -640 -9 -38 -22 -99 -28 -135 -6 -36 -17 -96 -25 -135 -25 -123 -44
-247 -55 -355 -16 -163 -31 -278 -46 -364 -8 -43 -14 -99 -14 -125 0 -26 -7
-97 -16 -157 -25 -162 -25 -1104 -1 -1246 9 -54 17 -126 17 -160 0 -35 4 -90
10 -123 5 -33 14 -103 20 -155 14 -130 103 -574 132 -655 5 -16 14 -46 18 -65
4 -19 13 -48 18 -65 18 -51 80 -276 96 -345 53 -237 60 -336 41 -525 -60 -579
-66 -776 -36 -1050 26 -229 55 -417 79 -511 14 -52 48 -215 72 -344 24 -127
43 -207 65 -280 9 -30 20 -73 25 -95 4 -22 19 -83 33 -135 26 -103 52 -247 62
-350 8 -78 -6 -122 -68 -225 -23 -38 -46 -77 -52 -87 -5 -10 -31 -52 -56 -95
-25 -43 -68 -117 -96 -164 -122 -208 -111 -300 47 -407 45 -30 73 -42 99 -42
20 0 52 -5 71 -11 61 -18 230 -31 415 -32 163 -1 185 1 228 21 26 11 50 28 53
36 10 25 48 19 89 -14 21 -16 54 -34 74 -39 70 -18 506 3 591 29 19 5 54 10
78 10 84 0 199 82 227 161 35 97 11 160 -177 467 -21 35 -38 65 -38 68 0 3
-11 20 -24 37 -13 18 -41 66 -62 107 -38 72 -39 78 -38 170 2 116 27 261 79
445 8 28 25 95 39 150 14 55 31 125 40 155 8 30 17 78 21 105 4 28 11 64 15
80 5 17 16 68 25 115 9 47 23 117 31 155 44 216 47 235 70 400 41 308 31 758
-26 1158 -19 128 -2 389 29 470 6 16 11 41 11 57 0 16 4 39 9 52 5 13 19 59
31 103 12 44 34 123 50 175 55 182 110 403 123 495 3 17 16 95 30 175 72 407
106 955 88 1439 -10 275 -32 590 -46 636 -6 21 -11 62 -44 355 -11 96 -32 240
-46 320 -14 80 -30 172 -36 205 -5 33 -14 74 -19 90 -22 71 -35 242 -33 440 2
391 20 919 31 950 7 17 19 57 28 90 15 55 85 274 139 440 13 39 26 91 30 117
3 26 11 50 16 54 12 7 45 -67 54 -121 4 -22 20 -94 35 -160 16 -66 34 -154 40
-195 7 -41 18 -115 26 -165 7 -49 18 -137 24 -195 5 -58 14 -129 20 -159 5
-29 10 -110 10 -180 0 -141 14 -232 67 -426 58 -216 66 -239 169 -503 14 -34
40 -109 59 -165 19 -56 40 -115 46 -132 11 -30 77 -231 103 -315 23 -73 35
-166 41 -320 6 -164 29 -281 75 -395 5 -11 11 -31 14 -45 2 -14 18 -63 34
-110 16 -47 37 -112 47 -145 44 -153 74 -216 132 -280 29 -32 90 -75 108 -75
9 0 41 -18 71 -41 48 -35 67 -42 128 -50 39 -5 92 -14 118 -20 60 -14 76 -8
148 51 96 81 108 157 64 405 -34 191 -32 200 34 166 58 -29 135 -29 156 1 27
38 17 79 -45 188 -4 8 -40 80 -79 160 -61 124 -124 225 -165 265 -28 29 -140
114 -189 145 -58 37 -96 98 -96 154 0 15 -7 55 -14 89 -22 92 -45 304 -71 647
-23 308 -44 513 -61 605 -18 93 -48 195 -68 233 -46 89 -101 243 -114 322 -6
36 -14 215 -17 398 -9 473 -16 569 -61 787 -16 75 -49 195 -66 235 -31 75 -37
144 -25 317 10 153 9 180 -7 255 -22 101 -79 228 -140 308 -26 33 -46 64 -46
68 0 20 -161 141 -254 191 -55 30 -205 79 -326 106 -43 10 -130 44 -205 80
-123 60 -367 164 -500 214 -108 40 -125 50 -136 78 -6 17 -9 95 -7 200 3 161
4 173 26 200 96 120 126 171 136 226 11 59 26 86 63 108 18 11 33 24 33 28 0
5 10 19 23 33 13 14 36 65 51 114 36 112 41 257 11 314 -18 36 -39 60 -50 60
-4 0 -19 9 -34 20 l-28 19 -6 163 c-10 283 -60 420 -204 564 -45 45 -110 88
-179 119 -32 14 -68 30 -79 35 -75 34 -314 51 -410 28z m354 -44 c116 -26 245
-102 327 -192 103 -113 175 -342 160 -503 -4 -41 -9 -162 -12 -269 -2 -107 -9
-242 -15 -300 -6 -58 -15 -143 -19 -190 -12 -137 -55 -228 -151 -325 -5 -5
-24 -25 -42 -44 -18 -19 -38 -39 -45 -45 -8 -6 -24 -20 -37 -32 -13 -12 -39
-31 -59 -43 -20 -13 -39 -28 -43 -34 -10 -15 -35 -31 -88 -57 -33 -16 -61 -20
-165 -20 -111 0 -131 3 -177 24 -126 59 -318 218 -398 331 -72 100 -90 166
-105 384 -5 75 -14 188 -20 251 -6 63 -11 165 -11 225 1 61 -2 145 -5 188 -5
56 -2 91 9 125 8 26 18 63 22 82 4 19 25 73 47 120 90 188 291 321 518 341 97
9 228 1 309 -17z m600 -968 c18 -28 21 -49 21 -139 0 -93 -4 -115 -30 -184
-27 -70 -69 -133 -88 -133 -4 0 -13 4 -21 9 -11 7 -12 31 -1 152 6 79 14 182
16 229 4 70 9 88 25 102 26 22 49 12 78 -36z m-1522 32 c4 -7 8 -40 9 -72 4
-90 24 -348 30 -372 3 -12 -1 -26 -11 -34 -39 -32 -116 81 -135 201 -6 35 -14
79 -17 98 -6 37 22 146 45 174 17 20 67 23 79 5z m343 -981 c49 -40 173 -119
217 -139 41 -18 61 -20 187 -16 148 4 180 12 220 57 11 12 23 21 28 21 6 0 43
27 85 61 101 82 103 80 103 -113 l0 -150 33 -32 c20 -21 57 -41 102 -56 85
-28 256 -96 345 -138 36 -16 101 -46 145 -65 58 -26 81 -42 83 -57 2 -13 -4
-23 -20 -29 -17 -7 2 -10 69 -10 93 -1 129 -7 254 -42 290 -82 485 -257 576
-519 l33 -95 -1 -240 c-1 -132 2 -249 6 -260 4 -11 10 -29 15 -40 10 -27 34
-105 59 -195 47 -170 68 -407 76 -849 5 -286 10 -388 21 -435 20 -79 38 -131
62 -181 90 -184 129 -348 152 -635 5 -69 14 -159 20 -200 5 -41 12 -136 15
-210 3 -74 10 -162 15 -195 6 -33 17 -121 25 -195 40 -348 51 -373 195 -460
73 -43 100 -67 152 -131 63 -78 99 -139 163 -274 31 -66 65 -137 76 -158 29
-53 38 -91 27 -110 -12 -23 -73 -22 -116 2 -34 17 -102 94 -102 115 -1 15 -58
81 -65 75 -2 -3 0 -19 5 -35 35 -111 66 -244 96 -417 27 -155 7 -275 -47 -292
-12 -4 -37 -23 -56 -41 -31 -31 -37 -34 -76 -28 -23 4 -50 14 -60 22 -15 13
-23 14 -52 3 -32 -11 -39 -10 -86 16 -29 15 -61 40 -72 55 -16 22 -29 28 -56
28 -66 0 -143 93 -182 217 -12 38 -25 77 -29 88 -5 11 -18 52 -29 90 -11 39
-35 115 -55 170 -54 155 -86 308 -86 418 0 136 -30 324 -70 432 -6 17 -21 64
-35 105 -56 172 -116 342 -158 445 -60 150 -161 465 -201 627 -9 36 -21 144
-26 240 -13 225 -29 427 -36 457 -3 14 -9 59 -14 100 -12 99 -46 274 -85 441
-29 124 -64 335 -65 385 -1 84 -13 85 -54 5 -27 -52 -34 -76 -27 -83 21 -21
11 -101 -33 -262 -16 -60 -49 -163 -65 -200 -17 -42 -33 -91 -38 -115 -2 -14
-8 -34 -13 -45 -19 -46 -51 -164 -60 -225 -6 -36 -14 -281 -19 -545 -8 -513
-3 -642 37 -840 11 -55 28 -143 37 -195 9 -52 23 -123 31 -157 8 -34 14 -81
14 -104 0 -24 4 -68 10 -98 12 -69 48 -352 66 -526 21 -199 37 -706 30 -940
-10 -320 -57 -819 -92 -972 -8 -34 -14 -76 -14 -92 0 -16 -5 -42 -11 -58 -6
-15 -15 -50 -19 -78 -15 -87 -60 -273 -90 -375 -12 -41 -28 -95 -35 -120 -7
-25 -23 -79 -35 -120 -12 -41 -25 -88 -30 -105 -55 -190 -68 -442 -37 -710 37
-329 50 -514 43 -648 -14 -278 -46 -527 -102 -792 -22 -107 -41 -201 -59 -295
-20 -101 -14 -77 -76 -320 -90 -350 -109 -445 -116 -576 -4 -76 -2 -87 27
-145 17 -35 39 -77 49 -94 10 -16 30 -52 45 -80 16 -27 54 -93 86 -145 106
-176 150 -270 150 -322 0 -51 -52 -138 -83 -138 -9 0 -30 -12 -47 -27 -26 -22
-44 -27 -96 -29 -35 -2 -72 -8 -83 -14 -11 -5 -53 -10 -93 -10 -41 0 -93 -7
-118 -16 -32 -11 -59 -14 -95 -9 -58 9 -87 9 -173 -1 -54 -6 -71 -3 -107 15
-66 33 -85 71 -85 172 0 46 5 102 11 124 6 22 14 63 19 90 4 28 13 70 19 95
51 203 60 274 66 530 2 129 10 271 16 315 16 121 13 576 -5 782 -61 666 -66
745 -66 944 0 107 5 237 10 289 6 52 15 140 20 195 5 55 14 129 19 165 25 160
31 286 21 410 -6 69 -15 233 -20 365 -5 132 -16 319 -25 415 -35 412 -70 1953
-45 2001 6 10 25 25 43 33 42 18 113 90 138 138 15 29 21 69 26 155 4 78 3
114 -4 110 -6 -4 -13 -50 -15 -104 -8 -149 -42 -209 -152 -267 -69 -37 -131
-35 -210 5 -77 39 -90 51 -118 107 -18 39 -21 61 -20 146 2 110 -11 160 -21
79 -10 -87 0 -197 23 -242 25 -46 73 -92 128 -120 36 -19 67 -55 58 -69 -2 -4
-7 -304 -11 -667 -3 -363 -10 -745 -15 -850 -14 -295 -30 -548 -36 -565 -3 -8
-9 -112 -14 -230 -5 -118 -15 -298 -21 -400 -12 -192 -8 -267 26 -505 36 -243
50 -634 32 -890 -12 -172 -36 -456 -53 -610 -24 -235 -28 -571 -9 -790 10
-104 21 -296 25 -425 6 -149 14 -259 24 -300 8 -36 27 -126 41 -200 14 -74 30
-149 35 -166 27 -84 -2 -236 -47 -250 -10 -3 -32 -13 -48 -21 -22 -11 -47 -13
-90 -9 -78 8 -96 8 -181 0 -51 -4 -78 -2 -95 7 -14 8 -58 14 -104 14 -44 1
-90 7 -102 13 -12 7 -45 12 -73 12 -42 0 -59 6 -89 29 -20 15 -46 31 -59 35
-12 4 -34 24 -50 43 -23 31 -27 46 -26 97 1 68 29 133 127 293 80 131 194 336
213 383 13 31 15 56 10 103 -19 169 -25 215 -35 247 -14 44 -139 558 -152 625
-6 28 -14 68 -19 90 -9 35 -24 112 -75 370 -13 65 -26 157 -57 380 -16 117
-15 556 1 705 7 63 20 176 28 250 29 250 18 442 -39 660 -11 41 -23 91 -27
110 -5 19 -22 78 -39 130 -17 52 -36 113 -41 135 -28 110 -63 258 -78 325 -8
41 -22 104 -29 140 -37 172 -62 344 -74 505 -5 72 -17 227 -25 345 -18 238
-16 751 4 1029 13 176 48 488 57 503 4 5 10 60 15 121 8 113 26 235 54 382 9
44 20 105 25 135 5 30 13 73 19 95 32 131 36 204 34 690 -1 505 -12 727 -38
805 -57 174 -165 514 -176 555 -18 70 -23 150 -10 173 8 16 3 33 -27 90 -21
41 -39 66 -43 59 -3 -7 -12 -66 -19 -132 -7 -66 -26 -174 -42 -240 -16 -66
-33 -142 -38 -170 -5 -27 -13 -68 -18 -90 -13 -50 -37 -195 -51 -300 -25 -193
-33 -282 -42 -465 -5 -107 -16 -224 -25 -260 -22 -98 -44 -180 -60 -225 -8
-23 -14 -50 -14 -61 0 -11 -4 -24 -8 -29 -5 -6 -19 -44 -31 -85 -21 -69 -64
-184 -113 -303 -10 -27 -37 -101 -58 -165 -21 -65 -56 -166 -78 -227 -22 -60
-43 -126 -47 -145 -4 -19 -11 -39 -15 -45 -4 -5 -10 -30 -13 -55 -4 -25 -11
-65 -16 -90 -6 -25 -10 -99 -11 -166 0 -147 -26 -279 -89 -459 -22 -61 -39
-115 -93 -285 -39 -122 -61 -168 -105 -219 -40 -47 -84 -74 -108 -65 -11 5
-30 -7 -59 -36 -50 -50 -106 -73 -144 -59 -19 7 -35 5 -68 -11 -24 -11 -51
-20 -60 -20 -23 0 -56 20 -77 47 -10 12 -25 23 -32 23 -8 0 -24 14 -36 31 -20
29 -22 42 -21 153 2 121 27 267 82 476 23 86 23 93 11 85 -12 -7 -71 -93 -71
-103 -1 -4 -15 -23 -33 -43 -34 -38 -94 -64 -137 -57 -50 6 -39 50 61 255 105
216 139 271 212 342 50 48 135 110 169 123 33 13 91 99 99 146 41 231 53 347
95 847 28 352 34 410 44 439 6 16 10 44 10 61 0 18 6 55 14 81 8 27 22 76 32
109 10 33 35 98 57 145 89 194 97 248 107 755 4 226 13 444 19 485 19 128 42
243 56 290 8 25 24 79 36 120 12 41 26 80 31 86 5 7 8 124 7 260 l-1 249 31
83 c17 46 45 109 62 140 35 59 114 162 136 175 7 5 21 16 31 26 56 56 178 126
272 155 30 10 64 21 75 26 55 24 175 40 307 42 107 1 126 3 76 7 -72 6 -84 12
-75 35 10 26 287 152 552 252 55 20 108 45 117 55 26 26 36 90 37 224 0 98 3
122 16 132 13 9 20 8 34 -5 10 -9 28 -25 41 -35z m394 -6093 c14 -5 16 -57 16
-478 1 -719 23 -1388 56 -1647 7 -63 14 -171 14 -240 0 -68 5 -176 11 -239 11
-127 15 -452 5 -469 -10 -16 -35 -225 -52 -441 -25 -312 -6 -765 55 -1295 13
-110 13 -670 0 -780 -5 -44 -11 -181 -14 -305 -4 -130 -12 -252 -20 -290 -26
-124 -44 -215 -50 -252 -3 -20 -14 -47 -24 -59 -16 -20 -21 -21 -34 -11 -9 7
-18 32 -22 55 -12 79 -46 241 -52 251 -4 5 -10 104 -14 220 -4 116 -13 288
-21 381 -21 279 -11 886 16 955 6 15 12 91 41 520 14 198 15 275 5 485 -6 138
-15 268 -20 290 -5 22 -10 62 -10 89 0 26 -7 76 -16 110 -14 53 -16 109 -10
437 3 207 10 407 16 445 39 273 68 1077 69 1925 1 185 4 339 8 342 8 9 27 9
47 1z"/>
<path d="M2910 14472 c-14 -1 -39 -14 -55 -28 l-30 -25 45 8 c70 12 179 8 251
-11 87 -21 122 -10 81 27 -31 28 -185 43 -292 29z"/>
<path d="M3630 14471 c-79 -11 -100 -20 -100 -41 0 -10 4 -21 9 -25 5 -3 52 4
103 16 91 20 156 21 243 2 l30 -6 -33 28 c-29 24 -42 28 -115 30 -45 2 -107 0
-137 -4z"/>
<path d="M3634 14320 c-42 -13 -55 -42 -16 -38 23 3 28 -2 36 -34 18 -72 86
-71 110 2 12 37 27 42 74 26 21 -7 23 -6 13 12 -6 11 -17 22 -25 25 -30 12
-162 16 -192 7z"/>
<path d="M2900 14298 c-27 -29 -26 -43 2 -24 36 26 57 20 75 -21 15 -38 39
-62 60 -63 19 0 44 30 50 61 5 24 10 29 37 29 l31 1 -24 19 c-19 17 -38 20
-117 20 -83 0 -95 -2 -114 -22z"/>
<path d="M3298 13623 c7 -3 16 -2 19 1 4 3 -2 6 -13 5 -11 0 -14 -3 -6 -6z"/>
<path d="M3188 13613 c7 -3 16 -2 19 1 4 3 -2 6 -13 5 -11 0 -14 -3 -6 -6z"/>
<path d="M3370 8950 c-12 -8 -12 -10 2 -15 20 -8 41 2 33 16 -8 11 -16 11 -35
-1z"/>
</g>
</svg>
