<?xml version="1.0" standalone="no"?>
<!DOCTYPE svg PUBLIC "-//W3C//DTD SVG 20010904//EN"
 "http://www.w3.org/TR/2001/REC-SVG-20010904/DTD/svg10.dtd">
<svg version="1.0" xmlns="http://www.w3.org/2000/svg"
 width="328.000000pt" height="1550.000000pt" viewBox="0 0 328.000000 1550.000000"
 preserveAspectRatio="xMidYMid meet">

<g transform="translate(0.000000,1550.000000) scale(0.100000,-0.100000)"
fill="#000000" stroke="none">
<path d="M1485 15320 c-132 -21 -165 -27 -177 -37 -7 -6 -24 -13 -38 -16 -203
-43 -406 -239 -470 -452 -65 -219 -72 -384 -21 -495 11 -25 21 -58 21 -74 0
-73 -72 -259 -121 -312 -15 -16 -19 -33 -17 -65 3 -41 7 -46 63 -84 59 -41 60
-42 61 -92 1 -27 7 -59 13 -71 6 -11 11 -33 11 -49 0 -16 6 -37 14 -48 8 -13
15 -55 17 -111 4 -80 7 -95 33 -132 45 -65 65 -74 170 -74 98 0 267 31 274 50
5 17 -12 15 -108 -9 -63 -16 -104 -20 -166 -17 -133 7 -163 38 -169 174 -2 50
-10 105 -19 126 -12 27 -13 44 -6 62 8 21 6 28 -11 37 -18 9 -20 18 -17 72 l3
62 -60 30 c-73 36 -88 67 -61 117 9 18 29 56 44 83 77 143 100 249 68 316 -43
92 -58 205 -37 288 5 20 17 72 27 116 10 44 37 121 61 172 97 205 238 313 493
378 94 24 123 27 275 27 204 0 280 -16 425 -89 73 -37 113 -66 172 -123 78
-77 178 -211 178 -240 0 -9 4 -20 9 -26 5 -5 24 -52 41 -104 30 -86 33 -109
38 -247 3 -120 1 -163 -11 -200 -8 -27 -18 -64 -22 -83 -3 -19 -10 -44 -15
-55 -5 -11 -18 -47 -30 -80 -20 -55 -51 -119 -142 -285 -96 -177 -99 -291 -13
-545 28 -83 188 -413 225 -464 19 -27 95 -177 133 -261 8 -19 29 -64 45 -100
80 -178 119 -364 143 -673 9 -122 9 -185 0 -280 -16 -167 -18 -181 -35 -272
-32 -170 -48 -235 -92 -375 -40 -129 -63 -204 -111 -360 -28 -92 -84 -266 -93
-285 -5 -11 -16 -47 -25 -80 -10 -33 -22 -73 -27 -90 -6 -16 -14 -46 -18 -65
-7 -33 -42 -174 -75 -300 -15 -60 -36 -160 -59 -285 -19 -99 -40 -394 -34
-478 3 -51 11 -73 43 -125 81 -129 108 -180 156 -290 98 -229 125 -366 116
-599 -6 -156 -20 -238 -61 -366 -48 -144 -138 -296 -214 -362 l-24 -21 12
-125 c13 -129 9 -432 -8 -754 -19 -331 -58 -580 -125 -800 -37 -122 -47 -156
-77 -260 -29 -103 -58 -225 -80 -339 -27 -137 -1 -259 99 -471 106 -222 134
-295 166 -438 9 -40 20 -82 25 -93 5 -12 12 -43 15 -70 4 -27 13 -76 20 -109
28 -130 38 -322 25 -485 -6 -85 -16 -180 -22 -210 -5 -30 -16 -91 -24 -135 -8
-44 -17 -98 -19 -120 -3 -22 -12 -85 -20 -140 -33 -226 -39 -304 -65 -770 -5
-106 -5 -208 1 -270 12 -128 62 -398 92 -500 7 -23 12 -102 12 -185 0 -132 -2
-148 -22 -180 -62 -99 -132 -125 -333 -124 -93 1 -175 8 -229 19 -103 21 -238
16 -399 -13 -159 -30 -590 -30 -672 -1 -85 30 -107 67 -76 127 28 54 77 78
206 102 50 9 118 44 195 100 28 20 73 49 100 65 28 16 91 57 141 92 51 35 94
63 98 63 14 0 151 94 192 132 69 63 78 107 77 368 0 207 -17 449 -49 725 -8
72 -19 168 -24 215 -4 47 -15 126 -23 175 -8 50 -22 151 -31 225 -41 332 -48
391 -61 495 -20 155 -21 160 -40 255 -9 47 -20 103 -25 125 -16 85 -103 358
-120 380 -8 10 -54 157 -83 265 -20 74 -36 183 -47 324 -6 65 -12 122 -15 126
-3 5 -12 48 -21 97 -9 48 -20 106 -24 128 -5 22 -16 78 -25 125 -9 47 -23 119
-31 160 -8 41 -19 105 -24 141 -5 37 -16 104 -24 150 -22 117 -46 525 -46 778
l0 212 46 19 c25 11 51 20 59 20 7 0 31 21 54 48 46 51 44 49 83 108 24 37
108 223 108 239 0 4 24 57 54 118 29 62 61 130 70 152 10 22 21 49 26 60 13
31 36 114 50 180 7 33 19 83 26 110 7 28 18 77 24 110 6 33 25 94 42 135 57
140 150 349 157 352 3 2 30 53 59 113 29 61 64 133 78 160 67 129 134 264 134
271 0 4 14 39 32 78 17 39 42 96 55 126 13 30 30 69 38 85 27 63 82 262 105
380 6 33 36 159 65 280 69 277 103 435 135 626 11 63 17 366 12 586 -3 100 0
148 9 165 7 12 16 39 20 58 4 19 24 81 43 138 39 113 43 134 23 112 -17 -18
-59 -140 -103 -295 -5 -16 -9 -185 -9 -375 0 -367 -1 -373 -61 -620 -8 -36
-22 -94 -30 -130 -17 -79 -27 -124 -49 -215 -9 -38 -27 -122 -41 -185 -39
-176 -42 -191 -59 -250 -9 -30 -21 -73 -26 -94 -8 -33 -50 -154 -93 -272 -6
-18 -16 -38 -22 -45 -6 -8 -21 -39 -34 -69 -49 -119 -124 -276 -210 -440 -82
-159 -207 -418 -232 -485 -30 -77 -78 -255 -78 -288 0 -19 -24 -110 -40 -152
-5 -11 -26 -77 -49 -147 -23 -70 -68 -180 -100 -245 -32 -65 -73 -153 -89
-195 -48 -121 -127 -235 -182 -263 -16 -8 -48 -15 -71 -15 -31 0 -50 -6 -68
-24 -31 -28 -99 -66 -121 -66 -9 0 -26 7 -38 16 -21 14 -26 14 -56 0 -53 -25
-136 -15 -136 17 0 7 -18 29 -40 47 -27 23 -44 47 -51 74 -12 45 -5 136 16
200 7 23 20 68 30 101 9 33 23 76 30 95 80 212 95 254 89 259 -3 3 -14 -5 -25
-19 -80 -106 -130 -139 -206 -140 -43 0 -63 17 -63 53 0 8 44 81 99 163 54 82
106 165 116 184 41 80 233 241 323 271 72 23 150 113 172 197 5 20 21 80 35
132 14 52 39 163 57 245 17 83 40 188 50 235 11 47 26 119 33 160 13 73 37
200 55 290 24 126 64 240 113 321 17 30 52 97 77 149 l45 95 0 558 c0 352 -3
542 -9 515 -10 -50 -13 -454 -6 -803 l5 -240 -77 -155 c-147 -298 -162 -346
-223 -715 -9 -55 -23 -127 -32 -160 -8 -33 -19 -82 -23 -110 -5 -27 -13 -70
-19 -95 -6 -25 -16 -65 -23 -90 -6 -25 -14 -63 -18 -85 -27 -143 -87 -324
-119 -358 -32 -34 -75 -57 -90 -48 -7 5 -12 99 -16 282 -2 150 -10 375 -16
499 -14 277 -6 809 15 1020 9 85 20 205 26 265 5 61 14 137 20 170 5 33 10 94
10 135 0 142 40 430 67 483 13 25 12 31 -8 63 -24 39 -58 193 -59 264 -1 137
69 405 154 595 13 28 35 78 50 113 25 57 82 166 106 202 10 14 22 39 35 70 3
8 20 38 38 67 18 29 59 96 92 149 33 53 73 120 89 148 15 28 44 73 63 99 44
60 93 178 93 222 0 38 -24 150 -42 193 -6 15 -32 72 -59 127 -34 72 -46 108
-42 128 6 32 -10 36 -46 11 -22 -16 -22 -16 -3 -38 38 -41 106 -183 142 -298
17 -55 15 -156 -3 -209 -9 -26 -46 -93 -84 -150 -77 -118 -89 -138 -99 -159
-4 -8 -33 -55 -64 -105 -59 -94 -177 -307 -240 -435 -36 -72 -152 -378 -163
-430 -3 -14 -10 -43 -16 -65 -42 -163 -36 -340 14 -475 18 -48 16 -88 -10
-215 -18 -92 -33 -231 -40 -380 -3 -66 -10 -154 -15 -195 -49 -390 -64 -759
-51 -1240 18 -644 21 -854 13 -894 -5 -31 -17 -46 -52 -72 -25 -18 -49 -33
-53 -33 -7 -1 -27 -18 -118 -102 -29 -28 -64 -77 -150 -214 -34 -55 -80 -124
-102 -154 -50 -68 -60 -128 -28 -160 24 -24 105 -29 160 -10 18 6 35 9 38 5 7
-7 -3 -48 -51 -209 -22 -73 -38 -150 -42 -200 -5 -79 -4 -84 25 -128 48 -72
96 -116 133 -122 48 -9 206 0 257 14 65 18 68 11 70 -198 1 -98 4 -191 7 -208
2 -16 9 -115 14 -220 5 -104 16 -242 24 -305 13 -106 21 -157 61 -355 23 -119
57 -298 65 -350 4 -27 12 -61 18 -75 5 -14 13 -59 16 -100 13 -138 35 -295 51
-365 21 -90 74 -272 85 -294 38 -70 93 -240 119 -371 12 -58 26 -130 33 -160
6 -30 15 -86 19 -125 4 -38 15 -119 24 -180 9 -60 20 -150 24 -198 5 -49 14
-116 20 -150 6 -34 15 -100 20 -147 5 -47 21 -173 34 -280 59 -461 68 -576 74
-915 4 -250 2 -295 -12 -328 -20 -48 -79 -114 -119 -132 -42 -20 -176 -104
-374 -236 -198 -132 -196 -131 -297 -153 -109 -24 -161 -52 -191 -102 -33 -56
-32 -103 3 -136 59 -55 81 -59 408 -60 274 -2 309 0 408 20 134 27 241 28 392
2 197 -34 340 -22 457 36 125 63 150 227 83 550 -79 378 -77 361 -72 637 5
248 22 501 51 727 29 227 35 269 45 327 43 250 51 334 51 522 0 149 -5 220
-20 310 -23 130 -77 375 -90 406 -4 11 -20 54 -35 95 -16 41 -46 113 -68 160
-21 47 -47 104 -58 127 -10 24 -28 62 -38 85 -49 108 -66 258 -40 352 6 21 14
59 19 85 5 25 16 71 25 101 9 30 23 78 30 105 34 129 58 213 79 278 71 214
103 425 126 827 11 184 14 668 6 783 l-5 67 59 66 c32 35 65 77 73 92 7 15 18
36 25 47 28 49 71 164 102 270 18 66 40 244 40 335 0 83 -21 259 -38 330 -36
145 -135 369 -208 472 -64 90 -74 120 -74 215 0 212 55 600 106 748 8 23 14
50 14 61 0 11 6 40 14 65 13 42 37 125 56 199 25 95 83 278 96 303 7 16 14 39
14 51 0 12 5 27 11 33 6 6 15 29 19 50 5 21 38 135 75 253 81 265 90 299 147
580 18 89 18 582 0 705 -17 116 -40 221 -58 263 -8 18 -14 41 -14 50 0 37
-135 332 -221 482 -100 175 -205 398 -246 520 -44 134 -45 136 -41 250 l4 115
52 105 c28 58 72 141 96 185 88 155 144 401 133 582 -14 207 -77 376 -199 525
-92 114 -165 171 -288 222 -36 16 -73 32 -83 38 -11 5 -44 14 -75 20 -32 5
-77 14 -102 18 -54 11 -226 10 -295 0z"/>
<path d="M933 14423 c-28 -5 -57 -43 -43 -57 6 -6 37 -3 85 9 53 12 100 16
155 13 44 -3 80 -3 80 -1 0 2 -15 12 -32 23 -27 17 -49 20 -128 19 -52 -1
-105 -4 -117 -6z"/>
<path d="M1858 14300 c-10 -6 -18 -18 -18 -26 0 -13 3 -13 22 0 46 33 130 8
164 -48 27 -44 24 -183 -4 -246 -23 -49 -106 -137 -149 -157 -27 -12 -27 -12
12 -6 38 6 86 47 120 104 47 77 57 107 62 174 10 132 -36 200 -144 211 -26 2
-56 0 -65 -6z"/>
<path d="M966 14277 c-16 -12 -16 -14 3 -31 13 -12 21 -31 21 -52 0 -23 6 -37
21 -44 26 -14 49 3 49 35 0 61 44 74 92 28 26 -25 28 -25 28 -7 0 29 -51 63
-111 74 -68 13 -82 13 -103 -3z"/>
<path d="M1867 14105 c6 -53 9 -62 19 -53 3 4 -1 28 -10 55 l-15 48 6 -50z"/>
<path d="M1691 13554 c-13 -41 -21 -77 -18 -81 7 -7 10 -1 33 85 24 88 14 85
-15 -4z"/>
<path d="M1551 13364 c-24 -13 -50 -24 -56 -24 -7 0 -18 -7 -25 -15 -7 -8 -8
-15 -2 -15 19 0 118 48 131 64 18 22 4 19 -48 -10z"/>
<path d="M1905 12630 c-3 -5 -17 -10 -31 -10 -38 0 -144 -62 -215 -125 -72
-65 -161 -190 -188 -267 -53 -148 -61 -187 -60 -291 l2 -102 7 90 c9 98 29
195 57 265 27 69 114 213 143 235 13 11 45 39 70 63 89 84 186 122 322 123 94
1 123 10 76 23 -37 10 -176 7 -183 -4z"/>
<path d="M1425 11733 c3 -16 10 -44 15 -63 43 -170 48 -286 21 -426 -18 -91
-43 -299 -39 -324 3 -18 6 -10 11 25 4 28 16 100 27 162 44 242 47 396 10 513
-10 30 -21 74 -25 98 -4 23 -11 42 -16 42 -5 0 -7 -12 -4 -27z"/>
</g>
</svg>
